#!OML:ASF F:\VICON\USERDATA\INSTALL\rory3\rory3.ASF
:FULLY-SPECIFIED
:DEGREES
287
root -6.03225 17.7133 5.63124 -5.98829 -22.1103 4.06943
lowerback 11.7318 2.0284 0.812481
upperback 1.05381 2.76095 -0.482919
thorax -5.40745 1.3305 -1.4082
lowerneck -17.2984 2.91531 -9.87834
upperneck 42.0103 6.49852 4.08019
head 18.169 1.50631 4.94227
rclavicle 8.87077e-014 -2.06736e-014
rhumerus -37.313 -18.3064 -71.0444
rradius 35.733
rwrist 2.87478
rhand -16.9343 9.28684
rfingers 7.12502
rthumb 9.29873 -20.4881
lclavicle 8.87077e-014 -2.06736e-014
lhumerus -36.8341 21.8985 75.5436
lradius 27.7055
lwrist -8.1491
lhand -22.8846 24.9871
lfingers 7.12502
lthumb 3.5545 54.9372
rfemur 2.60702 -0.37198 7.10137
rtibia 35.8414
rfoot -8.60099 -26.7064
rtoes 11.0373
lfemur -8.46898 0.92001 -17.2255
ltibia 18.9316
lfoot -1.16504 -1.5406
ltoes -23.1424
288
root -5.96627 17.7274 5.70499 -5.96859 -21.4765 4.08519
lowerback 11.7414 2.01711 0.819501
upperback 1.13139 2.75023 -0.416686
thorax -5.33442 1.32681 -1.33946
lowerneck -17.2991 2.92828 -9.67077
upperneck 41.9396 6.62923 3.66409
head 18.1558 1.53947 4.73118
rclavicle -2.01766e-014 -8.34896e-015
rhumerus -37.3184 -18.3859 -71.0264
rradius 35.9168
rwrist 2.78316
rhand -16.9703 8.90343
rfingers 7.12502
rthumb 9.26401 -20.873
lclavicle -2.01766e-014 -8.34896e-015
lhumerus -36.2372 21.2847 76.3151
lradius 27.915
lwrist -8.02678
lhand -22.6868 25.1464
lfingers 7.12502
lthumb 3.74555 55.0933
rfemur 2.15976 -0.0707171 7.0529
rtibia 36.9184
rfoot -7.43798 -27.2473
rtoes 14.7312
lfemur -8.382 0.698616 -17.7005
ltibia 18.8061
lfoot -1.23342 -1.82907
ltoes -22.7332
289
root -5.9037 17.7463 5.77847 -5.96342 -20.8505 4.21644
lowerback 11.6468 2.037 0.725224
upperback 1.22994 2.764 -0.406424
thorax -5.18283 1.33779 -1.27129
lowerneck -17.324 2.89816 -9.66606
upperneck 41.9465 6.65083 3.54111
head 18.1761 1.53382 4.68006
rclavicle -5.83185e-014 1.78906e-014
rhumerus -37.3146 -18.4862 -71.064
rradius 36.0687
rwrist 2.65594
rhand -16.9279 8.96421
rfingers 7.12502
rthumb 9.30494 -20.8104
lclavicle -5.83185e-014 1.78906e-014
lhumerus -35.4466 20.4185 77.1236
lradius 28.0621
lwrist -7.65822
lhand -22.7654 25.1087
lfingers 7.12502
lthumb 3.66961 55.0568
rfemur 1.66821 0.437767 6.96731
rtibia 38.0488
rfoot -6.43639 -27.8729
rtoes 18.3969
lfemur -8.23802 0.394764 -18.2873
ltibia 18.6025
lfoot -1.27174 -2.04049
ltoes -22.6339
290
root -5.84819 17.7635 5.84937 -5.985 -20.1438 4.41232
lowerback 11.5914 2.03542 0.444616
upperback 1.25676 2.72829 -0.365628
thorax -5.13986 1.32705 -1.06257
lowerneck -17.2011 2.87012 -9.9456
upperneck 41.9931 6.62536 3.73566
head 18.1481 1.51133 4.81328
rclavicle -3.97818e-014 -7.95139e-015
rhumerus -37.3755 -18.4198 -71.0837
rradius 36.1338
rwrist 2.50039
rhand -17.0936 8.99725
rfingers 7.12502
rthumb 9.145 -20.7845
lclavicle -3.97818e-014 -7.95139e-015
lhumerus -34.9124 19.4255 77.9197
lradius 28.3547
lwrist -7.14119
lhand -22.8065 25.126
lfingers 7.12502
lthumb 3.62995 55.0748
rfemur 1.17892 0.870268 6.84024
rtibia 39.2095
rfoot -5.61882 -28.4609
rtoes 21.8027
lfemur -8.04708 0.214166 -18.9239
ltibia 18.3399
lfoot -1.417 -2.45321
ltoes -23.4318
291
root -5.79562 17.7718 5.91292 -6.01225 -19.4215 4.72914
lowerback 11.6003 2.03284 -0.00976523
upperback 1.22843 2.66803 -0.353871
thorax -5.19714 1.30657 -0.786954
lowerneck -17.048 2.8869 -10.1456
upperneck 42.0491 6.63834 3.92117
head 18.1163 1.51554 4.93431
rclavicle 5.24792e-014 -3.97569e-015
rhumerus -37.4973 -18.1262 -71.2039
rradius 36.2878
rwrist 2.29521
rhand -17.3569 8.73944
rfingers 7.12502
rthumb 8.89093 -21.0532
lclavicle 5.24792e-014 -3.97569e-015
lhumerus -34.6186 18.5702 78.5603
lradius 28.766
lwrist -6.92333
lhand -22.6109 25.1834
lfingers 7.12502
lthumb 3.81889 55.129
rfemur 0.579491 1.15185 6.56996
rtibia 40.3893
rfoot -4.59143 -28.6503
rtoes 25.5157
lfemur -7.88581 -0.0111639 -19.6318
ltibia 17.9855
lfoot -1.44706 -2.88738
ltoes -23.3529
292
root -5.74627 17.7808 5.97049 -6.04296 -18.646 5.02339
lowerback 11.6626 2.00036 -0.414151
upperback 1.21602 2.57191 -0.373322
thorax -5.26289 1.26729 -0.567817
lowerneck -16.9606 2.97527 -9.85361
upperneck 42.0528 6.83571 3.53015
head 18.1174 1.58894 4.73291
rclavicle -3.70733e-014 -6.36111e-015
rhumerus -37.5128 -17.9599 -71.3646
rradius 36.2927
rwrist 2.27345
rhand -17.4272 8.70436
rfingers 7.12502
rthumb 8.82314 -21.0912
lclavicle -3.70733e-014 -6.36111e-015
lhumerus -34.2989 17.5698 79.2183
lradius 29.2354
lwrist -6.49329
lhand -22.4768 25.4439
lfingers 7.12502
lthumb 3.94832 55.3871
rfemur -0.00478438 1.36151 6.34186
rtibia 41.5449
rfoot -4.0368 -28.5176
rtoes 28.7826
lfemur -7.69963 -0.213072 -20.2766
ltibia 17.5453
lfoot -1.47783 -3.48017
ltoes -22.8877
293
root -5.70239 17.7877 6.02982 -6.14003 -17.7757 5.34911
lowerback 11.7914 1.94743 -0.884666
upperback 1.17575 2.43838 -0.393527
thorax -5.39634 1.21125 -0.309056
lowerneck -16.6599 3.13377 -9.44192
upperneck 41.91 7.13498 2.96296
head 17.9856 1.71202 4.42748
rclavicle 1.93567e-014 1.27222e-014
rhumerus -37.4972 -17.7275 -71.5256
rradius 36.0959
rwrist 2.23305
rhand -17.4911 8.95941
rfingers 7.12502
rthumb 8.76144 -20.8387
lclavicle 1.93567e-014 1.27222e-014
lhumerus -34.0789 16.1948 79.9377
lradius 29.8723
lwrist -5.80235
lhand -22.3854 25.8685
lfingers 7.12502
lthumb 4.03662 55.81
rfemur -0.390037 1.59808 6.11439
rtibia 42.6016
rfoot -4.29933 -27.9154
rtoes 30.1708
lfemur -7.43358 -0.364761 -20.9585
ltibia 17.09
lfoot -1.54 -4.20306
ltoes -22.3027
